<svg id="left-eye" xmlns="http://www.w3.org/2000/svg" width="512" height="512" viewBox="0 0 512 512">
  <defs>
    <style>
      .cls-1, .cls-2 {
        fill: #36b007;
      }

      .cls-1, .cls-5 {
        fill-rule: evenodd;
      }

      .cls-3 {
        fill: #fff;
      }

      .cls-4 {
        fill: #b25326;
      }
    </style>
  </defs>
  <path class="cls-1" d="M40,472L74.338,318,194,437.877,40,472"/>
  <circle class="cls-2" cx="255.5" cy="256.5" r="226.5"/>
  <circle class="cls-3" cx="255" cy="256" r="193"/>
  <ellipse id="hair" cx="256" cy="249" rx="154" ry="135"/>
  <circle id="face" class="cls-4" cx="256.5" cy="289.5" r="121.5"/>
  <ellipse id="eye" class="cls-3" cx="201" cy="281" rx="33" ry="16"/>
  <circle id="pupil" cx="200.5" cy="281.5" r="15.5"/>
  <ellipse id="eye-2" data-name="eye" class="cls-3" cx="312" cy="281" rx="33" ry="16"/>
  <circle id="pupil-2" data-name="pupil" cx="311.5" cy="281.5" r="15.5"/>
  <path id="NOSE_EYEBROW" class="cls-5" d="M155,264.527s19.675-21.356,41.326-22.089c23.955-.81,51.438,17.23,51.438,17.23V336.98s-0.144,5.325,2.2,7.952c2.384,2.674,7.254,2.651,7.254,2.651s2.611-.465,6.375-3.534c3.82-3.116,3.077-10.161,3.077-10.161L265.79,260.11s24.385-18.229,48.8-18.113c22.068,0.1,44.4,18.554,44.4,18.554l-2.638,3.535s-21.007-17.347-42.205-17.672c-22.088-.338-44.4,16.346-44.4,16.346l1.318,70.686s0.136,9.4-3.517,13.695-6.767,4.755-10.111,4.86c-2.728.085-7.321-.555-9.672-2.651-3.6-3.208-4.4-8.394-4.4-8.394l-0.439-78.637s-25.392-16.381-47.042-15.021c-20.525,1.289-37.369,20.322-37.369,20.322Z"/>
  <path id="MOUTH" class="cls-5" d="M199,358s53.474,58.526,112,0H199Z"/>
</svg>
